<?xml version="1.0" encoding="UTF-8"?> <svg xmlns="http://www.w3.org/2000/svg" xmlns:xlink="http://www.w3.org/1999/xlink" version="1.1" id="Ebene_1" x="0px" y="0px" width="600px" height="400px" viewBox="0 0 600 400" xml:space="preserve"> <radialGradient id="SVGID_1_" cx="194.7007" cy="138" r="351.7464" gradientTransform="matrix(1.5099 0.0138 -0.0139 1.1882 1.932 17.3468)" gradientUnits="userSpaceOnUse"> <stop offset="0" style="stop-color:#FFFFFF"></stop> <stop offset="0.339" style="stop-color:#FDFEFF;stop-opacity:0.8305"></stop> <stop offset="0.4927" style="stop-color:#F6FCFE;stop-opacity:0.7537"></stop> <stop offset="0.6089" style="stop-color:#E9F7FC;stop-opacity:0.6955"></stop> <stop offset="0.7063" style="stop-color:#D7F0FA;stop-opacity:0.6468"></stop> <stop offset="0.792" style="stop-color:#BFE8F6;stop-opacity:0.604"></stop> <stop offset="0.8694" style="stop-color:#A2DDF2;stop-opacity:0.5653"></stop> <stop offset="0.939" style="stop-color:#80D1EE;stop-opacity:0.5305"></stop> <stop offset="1" style="stop-color:#5CC4E9;stop-opacity:0.5"></stop> </radialGradient> <rect fill="url(#SVGID_1_)" width="600" height="400"></rect> <g> <g> <path fill="#5CC4E9" d="M476.612,300.02c-3.507,3.254-8.674,5.24-15.408,5.912c-0.517,0.052-1.076,0.079-1.671,0.079 c-9.858-0.003-36.628-8.17-66.484-30.08c-22.179-16.275-51.954-44.728-70.062-88.823c-2.02,31.936-4.13,70.369-4.346,88.15 c-0.423,34.663,9.825,43.9,22.243,51.654c12.347,7.704,21.471,9.984,32.032,12.623c11.916,2.979,25.415,6.354,46.136,18.488 c14.325,8.388,26.426,12.644,35.977,12.644c7.791,0,13.571-2.927,17.182-8.694C479.795,349.861,478.673,324.967,476.612,300.02z"></path> <path fill="#5CC4E9" d="M459.531,301.265c0.437,0,0.833-0.017,1.201-0.056c15.131-1.509,16.061-9.526,16.508-13.377 c1.502-12.934-14.105-94.251-29.76-132.008c-10.45-25.204-39.555-83.827-84.001-83.827c-2.394,0-4.834,0.171-7.255,0.506 c-22.659,3.147-25.744,28.382-27.398,41.938c-0.268,2.193-0.497,4.054-0.762,5.62c-0.674,3.946-2.419,26.311-4.345,55.688 C354.607,263.489,437.422,301.263,459.531,301.265z"></path> </g> <g> <path fill="#5CC4E9" d="M132.43,277.064c0.401,0,0.798-0.006,1.186-0.018c23.77-0.668,102.669-31.852,141.53-86.65 c-0.33-5.319-0.659-12.884-0.979-20.204l-0.027-0.569c-0.263-6.062-0.516-11.824-0.761-16.273 c-39.893,30.458-110.523,45.683-122.808,45.683c0,0-0.17,0.004-0.172,0.004c-0.207,0-0.355-0.009-0.502-0.017l-1.068-0.057 c-2.586-0.13-6.317-0.318-9.321-1.595c-7.108,24.826-17.783,67.386-17.521,73.085C122.127,273.531,123.443,277.064,132.43,277.064 z"></path> <path fill="#5CC4E9" d="M139.405,191.316c0.368,0.215,0.67,0.526,0.877,0.905c0.047,0.085,0.083,0.168,0.114,0.248 c2.03,1.423,6.16,1.629,8.675,1.754l0.999,0.053c0.158,0.011,0.321,0.013,0.499,0.013c12.436,0,83.97-15.558,122.437-46.68 c-1.075-14.565-1.895-23.916-2.31-26.361c-0.213-1.243-0.417-2.695-0.646-4.304c-1.89-13.378-5.405-38.278-28.755-42.076 c-3.749-0.61-7.455-0.919-11.015-0.919c-42.149,0-63.28,42.455-79.778,82.246l-1.112,2.673 c-4.278,10.272-11.432,27.451-10.065,32.233C139.345,191.172,139.372,191.242,139.405,191.316z"></path> <path fill="#5CC4E9" d="M280.117,276.443c-0.166-13.73-1.587-43.338-3.813-79.609c-40.613,53.749-118.878,84.289-142.557,84.955 c-0.447,0.01-0.979,0.026-1.586,0.026c-3.433,0-6.323-0.532-8.618-1.582c-3.59,31.097-6.323,68.029,3.004,82.927 c3.61,5.77,9.391,8.694,17.183,8.694c9.549,0,21.654-4.255,35.974-12.644c20.72-12.134,34.22-15.507,46.13-18.483 c10.571-2.645,19.694-4.924,32.043-12.63C270.293,320.348,280.539,311.109,280.117,276.443z"></path> <path fill="#FFFFFF" d="M240.74,341.483c-0.311,0.104-0.621,0.203-0.932,0.303C240.119,341.687,240.43,341.588,240.74,341.483z"></path> </g> <g opacity="0.5"> <path fill="#E4007D" d="M245.646,118.234c0,0-1.283,17.497,0.299,21.451c1.58,3.953,7.021,14.604,23.518,10.274 c15.812-4.15,16.801-31.621,16.801-31.621l1.188-86.967l22.923-3.165c0,0-0.79,79.061,4.786,100.208 c5.573,21.148,21.234,21.067,29.212,16.999c10.081-5.138,4.545-33.997,4.545-33.997l6.662-4.031 c-0.395,2.965-0.93,15.693,2.432,18.855c3.361,3.163,7.314-1.779,12.848-4.744c5.535-2.965,7.648-2.468,7.648-2.468l4.942,5.429 c-3.163,1.384-26.23,9.886-19.115,15.421c7.116,5.534,46.012,1.792,46.012,1.792l0.627,3.912 c-3.519-2.386-20.853,0.148-19.865,4.299c0.986,4.15,20.611,6.4,20.611,6.4l0.785,5.337c0,0-9.033-1.578-18.72-4.94 c-9.685-3.358-10.87-4.546-20.159-6.917c-9.291-2.372-21.744,2.767-23.127,16.801c-1.384,14.032,6.662,33.004,14.964,40.315 c8.302,7.312,26.881,7.414,26.881,7.414l-1.721,3.854c-4.939-0.594-24.509-4.545-23.916,2.371 c0.594,6.919,31.369,30.635,31.369,30.635l-4.623,3.767c-4.151-2.963-20-22.862-28.891-19.809 c-7.293,2.504-3.842,37.115-3.842,37.115l-7.511,0.199c0,0,0.652-24.83-1.524-48.349c-2.176-23.518-21.939-51.783-29.053-59.491 c-7.119-7.707-15.319-14.576-29.057-8.5c-16.828,7.445-40.914,56.332-43.564,77.874c-2.649,21.543,9.235,34.797,9.235,34.797 l-4.451,3.833c-0.791-2.568-7.272-13.924-8.853-12.541c-1.58,1.384,2.569,18.577,2.569,18.577l-4.745,2.966 c-0.791-7.906-4.348-22.531-6.918-23.915c-2.568-1.385-12.734,13.045-12.734,13.045l-4.262-3.312c0,0,11.559-11.563,14.428-17.244 c1.939-3.842-0.989-6.128-3.955-5.536c-2.965,0.594-22.567,0.113-22.567,0.113l1.007-6.111c0,0,20.341,1.663,23.302-3.825 c5.595-10.373,5.003-16.364,3.796-21.796c-0.891-4.005-5.93-5.535-12.257-3.757c-6.325,1.777-19.17,13.836-19.17,13.836 l-6.523-1.383c0,0,9.36-7.969,10.675-10.477c0.813-1.556-2.571-1.383-2.571-1.383l-20.555-0.394c0,0,0.936-3.558,0.791-4.35 c0,0,21.445,1.359,24.114-0.396c4.207-2.766-5.733-10.08-5.733-10.08l5.535-1.777c15.811,6.718,24.432,1.446,31.031-5.142 c7.801-7.78,21.148-23.32,4.149-33.598c-16.997-10.278-38.243-1.484-38.243-1.484l-3.855-6.819 c17.197-5.337,23.324-0.789,25.3-3.359c1.978-2.569-22.533-16.009-22.533-16.009l4.942-5.241c0,0,16.998,15.519,25.102,14.333 c5.283-0.773,2.373-19.766,2.373-19.766L245.646,118.234z"></path> </g> </g> </svg> 